<mxfile host="app.diagrams.net" agent="Mozilla/5.0 (Windows NT 10.0; Win64; x64) AppleWebKit/537.36 (KHTML, like Gecko) Chrome/139.0.0.0 Safari/537.36" version="28.2.3">
  <diagram name="第 1 页" id="VXdYecCD6gOoxuo-_zsK">
    <mxGraphModel dx="2505" dy="2053" grid="1" gridSize="10" guides="1" tooltips="1" connect="1" arrows="1" fold="1" page="1" pageScale="1" pageWidth="827" pageHeight="1169" math="0" shadow="0">
      <root>
        <mxCell id="0" />
        <mxCell id="1" parent="0" />
        <mxCell id="cQCVnI_vHgYei_WvfOaM-10" value="" style="edgeStyle=orthogonalEdgeStyle;rounded=0;orthogonalLoop=1;jettySize=auto;html=1;" edge="1" parent="1" source="cQCVnI_vHgYei_WvfOaM-6" target="cQCVnI_vHgYei_WvfOaM-8">
          <mxGeometry relative="1" as="geometry" />
        </mxCell>
        <mxCell id="cQCVnI_vHgYei_WvfOaM-18" value="Java" style="swimlane;fillColor=#FFFF66;gradientColor=none;swimlaneFillColor=#FFFF99;direction=south;startSize=90;fontSize=21;" vertex="1" parent="1">
          <mxGeometry x="40" y="-190" width="790" height="245" as="geometry" />
        </mxCell>
        <mxCell id="cQCVnI_vHgYei_WvfOaM-3" value="HardwareRenderer" style="shape=cube;whiteSpace=wrap;html=1;boundedLbl=1;backgroundOutline=1;darkOpacity=0.05;darkOpacity2=0.1;fontColor=#000099;" vertex="1" parent="cQCVnI_vHgYei_WvfOaM-18">
          <mxGeometry x="440" y="77.5" width="140" height="90" as="geometry" />
        </mxCell>
        <mxCell id="cQCVnI_vHgYei_WvfOaM-4" value="Surface::HwuiContext" style="shape=cube;whiteSpace=wrap;html=1;boundedLbl=1;backgroundOutline=1;darkOpacity=0.05;darkOpacity2=0.1;fontColor=#000099;" vertex="1" parent="cQCVnI_vHgYei_WvfOaM-18">
          <mxGeometry x="80" y="77.5" width="140" height="90" as="geometry" />
        </mxCell>
        <mxCell id="cQCVnI_vHgYei_WvfOaM-8" value="&lt;div&gt;static jlong create(JNIEnv* env, jclass clazz, jlong rootNodePtr, jlong surfacePtr,&lt;/div&gt;&lt;div&gt;&amp;nbsp; &amp;nbsp; &amp;nbsp; &amp;nbsp; jboolean isWideColorGamut) {&lt;/div&gt;&lt;div&gt;&amp;nbsp; &amp;nbsp; RenderNode* rootNode = reinterpret_cast&amp;lt;RenderNode*&amp;gt;(rootNodePtr);&lt;/div&gt;&lt;div&gt;&amp;nbsp; &amp;nbsp; sp&amp;lt;Surface&amp;gt; surface(reinterpret_cast&amp;lt;Surface*&amp;gt;(surfacePtr));&lt;/div&gt;&lt;div&gt;&amp;nbsp; &amp;nbsp; ContextFactory factory;&lt;/div&gt;&lt;div&gt;&amp;nbsp;&lt;font style=&quot;color: rgb(255, 51, 51);&quot;&gt; &lt;b&gt;&amp;nbsp; RenderProxy* proxy = new RenderProxy(false, rootNode, &amp;amp;factory);&lt;/b&gt;&lt;/font&gt;&lt;/div&gt;&lt;div&gt;&amp;nbsp; &amp;nbsp; proxy-&amp;gt;loadSystemProperties();&lt;/div&gt;&lt;div&gt;&amp;nbsp; &amp;nbsp; if (isWideColorGamut) {&lt;/div&gt;&lt;div&gt;&amp;nbsp; &amp;nbsp; &amp;nbsp; &amp;nbsp; proxy-&amp;gt;setWideGamut(true);&lt;/div&gt;&lt;div&gt;&amp;nbsp; &amp;nbsp; }&lt;/div&gt;&lt;div&gt;&amp;nbsp; &amp;nbsp; proxy-&amp;gt;setSwapBehavior(SwapBehavior::kSwap_discardBuffer);&lt;/div&gt;&lt;div&gt;&amp;nbsp; &amp;nbsp; proxy-&amp;gt;setSurface(surface, false);&lt;/div&gt;&lt;div&gt;&amp;nbsp; &amp;nbsp; // Shadows can&#39;t be used via this interface, so just set the light source&lt;/div&gt;&lt;div&gt;&amp;nbsp; &amp;nbsp; // to all 0s.&lt;/div&gt;&lt;div&gt;&amp;nbsp; &amp;nbsp; proxy-&amp;gt;setLightAlpha(0, 0);&lt;/div&gt;&lt;div&gt;&amp;nbsp; &amp;nbsp; proxy-&amp;gt;setLightGeometry((Vector3){0, 0, 0}, 0);&lt;/div&gt;&lt;div&gt;&amp;nbsp;&lt;b&gt; &amp;nbsp;&lt;font style=&quot;color: rgb(255, 102, 102);&quot;&gt; return (jlong) proxy;&lt;/font&gt;&lt;/b&gt;&lt;/div&gt;&lt;div&gt;}&lt;/div&gt;&lt;div&gt;&lt;br&gt;&lt;/div&gt;" style="shape=note;whiteSpace=wrap;html=1;backgroundOutline=1;fontColor=#000000;darkOpacity=0.05;fillColor=#FFF9B2;strokeColor=none;fillStyle=solid;direction=west;gradientDirection=north;gradientColor=#FFF2A1;shadow=1;size=20;pointerEvents=1;align=left;" vertex="1" parent="1">
          <mxGeometry x="-530" y="12.5" width="460" height="285" as="geometry" />
        </mxCell>
        <mxCell id="cQCVnI_vHgYei_WvfOaM-11" value="&lt;div&gt;static jlong android_view_ThreadedRenderer_createProxy(JNIEnv* env, jobject clazz,&lt;/div&gt;&lt;div&gt;&amp;nbsp; &amp;nbsp; &amp;nbsp; &amp;nbsp; jboolean translucent, jlong rootRenderNodePtr) {&lt;/div&gt;&lt;div&gt;&amp;nbsp; &amp;nbsp; RootRenderNode* rootRenderNode = reinterpret_cast&amp;lt;RootRenderNode*&amp;gt;(rootRenderNodePtr);&lt;/div&gt;&lt;div&gt;&amp;nbsp; &amp;nbsp; ContextFactoryImpl factory(rootRenderNode);&lt;/div&gt;&lt;div&gt;&amp;nbsp; &amp;nbsp; &lt;b&gt;&lt;font style=&quot;color: rgb(255, 51, 51);&quot;&gt;return (jlong) new RenderProxy(translucent, rootRenderNode, &amp;amp;factory);&lt;/font&gt;&lt;/b&gt;&lt;/div&gt;&lt;div&gt;}&lt;/div&gt;&lt;div&gt;&lt;br&gt;&lt;/div&gt;&lt;div&gt;static void android_view_ThreadedRenderer_deleteProxy(JNIEnv* env, jobject clazz,&lt;/div&gt;&lt;div&gt;&amp;nbsp; &amp;nbsp; &amp;nbsp; &amp;nbsp; jlong proxyPtr) {&lt;/div&gt;&lt;div&gt;&amp;nbsp; &amp;nbsp; RenderProxy* proxy = reinterpret_cast&amp;lt;RenderProxy*&amp;gt;(proxyPtr);&lt;/div&gt;&lt;div&gt;&amp;nbsp; &amp;nbsp; delete proxy;&lt;/div&gt;&lt;div style=&quot;&quot;&gt;}&lt;/div&gt;" style="shape=note;whiteSpace=wrap;html=1;backgroundOutline=1;fontColor=#000000;darkOpacity=0.05;fillColor=#FFF9B2;strokeColor=none;fillStyle=solid;direction=west;gradientDirection=north;gradientColor=#FFF2A1;shadow=1;size=20;pointerEvents=1;align=left;" vertex="1" parent="1">
          <mxGeometry x="850" y="12.5" width="560" height="307.5" as="geometry" />
        </mxCell>
        <mxCell id="cQCVnI_vHgYei_WvfOaM-19" value="JNI" style="swimlane;fillColor=#00CCCC;gradientColor=none;swimlaneFillColor=#00CCCC;direction=south;startSize=90;fontSize=21;" vertex="1" parent="1">
          <mxGeometry x="40" y="55" width="790" height="245" as="geometry" />
        </mxCell>
        <mxCell id="cQCVnI_vHgYei_WvfOaM-6" value="android_view_Surface&lt;div&gt;::hwui::create&lt;/div&gt;&lt;div&gt;::hwui::destroy&lt;/div&gt;" style="shape=cube;whiteSpace=wrap;html=1;boundedLbl=1;backgroundOutline=1;darkOpacity=0.05;darkOpacity2=0.1;fontColor=#000099;" vertex="1" parent="cQCVnI_vHgYei_WvfOaM-19">
          <mxGeometry x="10" y="55" width="320" height="90" as="geometry" />
        </mxCell>
        <mxCell id="cQCVnI_vHgYei_WvfOaM-22" value="android_view_ThreadedRenderer&lt;div&gt;::createProxy&lt;/div&gt;&lt;div&gt;::deleteProxy&lt;/div&gt;" style="shape=cube;whiteSpace=wrap;html=1;boundedLbl=1;backgroundOutline=1;darkOpacity=0.05;darkOpacity2=0.1;fontColor=#000099;" vertex="1" parent="cQCVnI_vHgYei_WvfOaM-19">
          <mxGeometry x="374" y="55" width="320" height="90" as="geometry" />
        </mxCell>
        <mxCell id="cQCVnI_vHgYei_WvfOaM-23" style="edgeStyle=orthogonalEdgeStyle;rounded=0;orthogonalLoop=1;jettySize=auto;html=1;exitX=0;exitY=0;exitDx=320;exitDy=55;exitPerimeter=0;" edge="1" parent="1" source="cQCVnI_vHgYei_WvfOaM-22" target="cQCVnI_vHgYei_WvfOaM-11">
          <mxGeometry relative="1" as="geometry" />
        </mxCell>
        <mxCell id="cQCVnI_vHgYei_WvfOaM-24" value="Native&#xa;" style="swimlane;fillColor=#994C00;gradientColor=none;swimlaneFillColor=#994C00;direction=south;startSize=90;fontSize=21;strokeColor=#000000;" vertex="1" parent="1">
          <mxGeometry x="40" y="300" width="790" height="340" as="geometry" />
        </mxCell>
        <mxCell id="cQCVnI_vHgYei_WvfOaM-32" style="edgeStyle=orthogonalEdgeStyle;rounded=0;orthogonalLoop=1;jettySize=auto;html=1;" edge="1" parent="cQCVnI_vHgYei_WvfOaM-24" source="cQCVnI_vHgYei_WvfOaM-2" target="cQCVnI_vHgYei_WvfOaM-1">
          <mxGeometry relative="1" as="geometry" />
        </mxCell>
        <mxCell id="cQCVnI_vHgYei_WvfOaM-2" value="RenderProxy" style="shape=cube;whiteSpace=wrap;html=1;boundedLbl=1;backgroundOutline=1;darkOpacity=0.05;darkOpacity2=0.1;fontColor=#000099;" vertex="1" parent="cQCVnI_vHgYei_WvfOaM-24">
          <mxGeometry x="300" y="60" width="120" height="80" as="geometry" />
        </mxCell>
        <mxCell id="cQCVnI_vHgYei_WvfOaM-1" value="RenderThread" style="shape=cube;whiteSpace=wrap;html=1;boundedLbl=1;backgroundOutline=1;darkOpacity=0.05;darkOpacity2=0.1;fontColor=#000099;" vertex="1" parent="cQCVnI_vHgYei_WvfOaM-24">
          <mxGeometry x="300" y="190" width="120" height="80" as="geometry" />
        </mxCell>
        <mxCell id="cQCVnI_vHgYei_WvfOaM-27" style="edgeStyle=orthogonalEdgeStyle;rounded=0;orthogonalLoop=1;jettySize=auto;html=1;exitX=0;exitY=0;exitDx=80;exitDy=90;exitPerimeter=0;entryX=0;entryY=0;entryDx=150;entryDy=0;entryPerimeter=0;" edge="1" parent="1" source="cQCVnI_vHgYei_WvfOaM-4" target="cQCVnI_vHgYei_WvfOaM-6">
          <mxGeometry relative="1" as="geometry" />
        </mxCell>
        <mxCell id="cQCVnI_vHgYei_WvfOaM-29" style="edgeStyle=orthogonalEdgeStyle;rounded=0;orthogonalLoop=1;jettySize=auto;html=1;entryX=0.425;entryY=0.111;entryDx=0;entryDy=0;entryPerimeter=0;" edge="1" parent="1" source="cQCVnI_vHgYei_WvfOaM-3" target="cQCVnI_vHgYei_WvfOaM-22">
          <mxGeometry relative="1" as="geometry" />
        </mxCell>
        <mxCell id="cQCVnI_vHgYei_WvfOaM-30" style="edgeStyle=orthogonalEdgeStyle;rounded=0;orthogonalLoop=1;jettySize=auto;html=1;entryX=0;entryY=0;entryDx=50;entryDy=0;entryPerimeter=0;" edge="1" parent="1" source="cQCVnI_vHgYei_WvfOaM-6" target="cQCVnI_vHgYei_WvfOaM-2">
          <mxGeometry relative="1" as="geometry" />
        </mxCell>
        <mxCell id="cQCVnI_vHgYei_WvfOaM-31" style="edgeStyle=orthogonalEdgeStyle;rounded=0;orthogonalLoop=1;jettySize=auto;html=1;entryX=0;entryY=0;entryDx=50;entryDy=0;entryPerimeter=0;" edge="1" parent="1" source="cQCVnI_vHgYei_WvfOaM-22" target="cQCVnI_vHgYei_WvfOaM-2">
          <mxGeometry relative="1" as="geometry" />
        </mxCell>
      </root>
    </mxGraphModel>
  </diagram>
</mxfile>
